<svg preserveAspectRatio="none" width="100%" height="100%" overflow="visible" style="display: block;" viewBox="0 0 32 32" fill="none" xmlns="http://www.w3.org/2000/svg">
<g id="icon">
<path id="Subtract" d="M15.846 4C17.1084 4 18.3593 4.24842 19.5257 4.73145C19.7039 4.80528 19.8789 4.88647 20.052 4.9707C19.6012 5.4673 19.2403 6.04673 18.9925 6.68262C18.9157 6.6478 18.839 6.61238 18.761 6.58008C17.8371 6.19741 16.846 6 15.846 6C14.8461 6.00006 13.8557 6.19747 12.9319 6.58008C12.0082 6.96274 11.1682 7.52351 10.4612 8.23047C9.75422 8.93749 9.19349 9.77745 8.81082 10.7012C8.42819 11.6249 8.23082 12.6154 8.23074 13.6152V18.1953C8.23091 18.4349 8.18452 18.6732 8.09304 18.8945C8.00153 19.1158 7.86669 19.3169 7.69753 19.4863L7.21707 19.9668C7.13917 20.0447 7.09694 20.0869 7.06667 20.1191C7.0562 20.1303 7.04956 20.1376 7.04617 20.1416L7.04324 20.1455C7.02266 20.1741 7.00909 20.2075 7.0032 20.2422C7.00279 20.2479 7.00272 20.2584 7.00222 20.2744C7.00082 20.3197 7.00027 20.3808 7.00027 20.4902C7.00027 20.7386 7.00107 20.8843 7.0071 20.9922C7.00947 21.0343 7.0101 21.061 7.01199 21.0752C7.02338 21.1083 7.04289 21.1383 7.06765 21.1631C7.09271 21.1881 7.12298 21.2074 7.15652 21.2188L7.23855 21.2246C7.34529 21.2306 7.48892 21.2305 7.73562 21.2305H23.9573C24.2041 21.2305 24.3482 21.2307 24.4553 21.2246C24.5554 21.219 24.562 21.2105 24.5374 21.2188C24.57 21.2073 24.5998 21.1886 24.6243 21.1641C24.6493 21.139 24.6687 21.1078 24.68 21.0742L24.6809 21.0723C24.6724 21.0973 24.6801 21.0909 24.6858 20.9912C24.6919 20.884 24.6927 20.7389 24.6927 20.4902C24.6926 20.3803 24.6922 20.321 24.6907 20.2773C24.6903 20.2641 24.6901 20.255 24.6897 20.25L24.6887 20.2402C24.683 20.2055 24.6691 20.1722 24.6487 20.1436V20.1426C24.645 20.1383 24.6374 20.131 24.6262 20.1191C24.5956 20.0864 24.5532 20.0441 24.4759 19.9668L23.9954 19.4863C23.8262 19.3169 23.6914 19.1158 23.5999 18.8945C23.5084 18.6732 23.462 18.4348 23.4622 18.1953V14.1865C23.6889 14.2148 23.9202 14.2314 24.1546 14.2314C24.6052 14.2314 25.0428 14.1758 25.4622 14.0742V18.124L25.8899 18.5527C25.9826 18.6454 26.087 18.747 26.1829 18.8613L26.2757 18.9805L26.2766 18.9814C26.4754 19.2599 26.6073 19.5813 26.6624 19.9189H26.6614C26.6948 20.1192 26.6927 20.3189 26.6927 20.4902C26.6927 20.8833 26.7049 21.325 26.5745 21.7119L26.5755 21.7129C26.4659 22.0382 26.2818 22.3342 26.0393 22.5771C25.7968 22.82 25.5012 23.0042 25.176 23.1143L25.1741 23.1152C24.8856 23.212 24.5652 23.2281 24.2581 23.2305H20.5384V23.4619C20.5383 24.7061 20.044 25.8994 19.1643 26.7793C18.2844 27.6593 17.0905 28.1543 15.846 28.1543C14.6017 28.1542 13.4085 27.6592 12.5286 26.7793C11.6489 25.8994 11.1547 24.7061 11.1546 23.4619V23.2305H7.43484C7.12822 23.2281 6.80907 23.2119 6.52078 23.1152L6.5198 23.1143C6.19409 23.0048 5.8978 22.8218 5.65457 22.5791C5.41127 22.3361 5.22649 22.0396 5.11648 21.7139L5.1155 21.71C4.98748 21.3254 5.00027 20.8857 5.00027 20.4902C5.00026 20.3152 4.99763 20.1155 5.02957 19.9189V19.916C5.0857 19.5773 5.2196 19.2552 5.42019 18.9766H5.42117C5.53803 18.8138 5.68038 18.6754 5.803 18.5527L6.23074 18.124V13.6152C6.23082 12.3527 6.48002 11.102 6.96316 9.93555C7.44634 8.76926 8.1545 7.70909 9.04714 6.81641C9.93997 5.92364 11.0008 5.21462 12.1673 4.73145C13.3335 4.24849 14.5837 4.00006 15.846 4ZM13.1546 23.4619C13.1547 24.1757 13.438 24.8604 13.9427 25.3652C14.4474 25.87 15.1321 26.1542 15.846 26.1543C16.56 26.1543 17.2454 25.8701 17.7503 25.3652C18.2549 24.8604 18.5383 24.1757 18.5384 23.4619V23.2305H13.1546V23.4619Z" fill="var(--fill-0, black)"/>
<circle id="Ellipse 3" cx="24" cy="9" r="3" fill="var(--fill-0, #FF6F0F)"/>
</g>
</svg>
