<svg preserveAspectRatio="none" width="100%" height="100%" overflow="visible" style="display: block;" viewBox="0 0 24 24" fill="none" xmlns="http://www.w3.org/2000/svg">
<g id="Group">
<g id="Vector">
</g>
<path id="Vector_2" fill-rule="evenodd" clip-rule="evenodd" d="M12.5631 14.9986C12.4131 15.1486 12.2097 15.2329 11.9975 15.2329C11.7854 15.2329 11.5819 15.1486 11.4319 14.9986L6.90632 10.473C6.82991 10.3993 6.76897 10.311 6.72704 10.2134C6.68511 10.1158 6.66304 10.0108 6.66212 9.90457C6.6612 9.79835 6.68144 9.693 6.72166 9.59469C6.76189 9.49637 6.82129 9.40705 6.8964 9.33193C6.97152 9.25682 7.06084 9.19742 7.15916 9.15719C7.25747 9.11697 7.36282 9.09673 7.46904 9.09765C7.57526 9.09857 7.68024 9.12064 7.77784 9.16257C7.87545 9.2045 7.96372 9.26544 8.03752 9.34185L11.9975 13.3019L15.9575 9.34185C16.1084 9.19612 16.3105 9.11549 16.5202 9.11731C16.73 9.11913 16.9306 9.20327 17.079 9.35159C17.2273 9.49992 17.3114 9.70057 17.3133 9.91033C17.3151 10.1201 17.2344 10.3222 17.0887 10.473L12.5631 14.9986Z" fill="var(--fill-0, black)"/>
</g>
</svg>
