<svg preserveAspectRatio="none" width="100%" height="100%" overflow="visible" style="display: block;" viewBox="0 0 32 32" fill="none" xmlns="http://www.w3.org/2000/svg">
<g id="fluent:people-community-12-filled">
<path id="Vector" d="M11.9044 9.27778C11.9044 8.71601 12.0129 8.15975 12.2239 7.64074C12.4349 7.12174 12.7441 6.65016 13.1339 6.25293C13.5237 5.8557 13.9865 5.5406 14.4959 5.32563C15.0052 5.11065 15.5511 5 16.1024 5C16.6537 5 17.1996 5.11065 17.7089 5.32563C18.2182 5.5406 18.681 5.8557 19.0708 6.25293C19.4606 6.65016 19.7699 7.12174 19.9808 7.64074C20.1918 8.15975 20.3004 8.71601 20.3004 9.27778C20.3004 10.4123 19.8581 11.5004 19.0708 12.3026C18.2835 13.1049 17.2158 13.5556 16.1024 13.5556C14.989 13.5556 13.9212 13.1049 13.1339 12.3026C12.3466 11.5004 11.9044 10.4123 11.9044 9.27778ZM7.10661 14.7778C7.90189 14.7778 8.66459 14.4559 9.22693 13.8828C9.78928 13.3098 10.1052 12.5326 10.1052 11.7222C10.1052 10.9118 9.78928 10.1346 9.22693 9.56162C8.66459 8.98859 7.90189 8.66667 7.10661 8.66667C6.31134 8.66667 5.54864 8.98859 4.98629 9.56162C4.42395 10.1346 4.10803 10.9118 4.10803 11.7222C4.10803 12.5326 4.42395 13.3098 4.98629 13.8828C5.54864 14.4559 6.31134 14.7778 7.10661 14.7778ZM28.0967 11.7222C28.0967 12.5326 27.7808 13.3098 27.2185 13.8828C26.6561 14.4559 25.8934 14.7778 25.0981 14.7778C24.3029 14.7778 23.5402 14.4559 22.9778 13.8828C22.4155 13.3098 22.0995 12.5326 22.0995 11.7222C22.0995 10.9118 22.4155 10.1346 22.9778 9.56162C23.5402 8.98859 24.3029 8.66667 25.0981 8.66667C25.8934 8.66667 26.6561 8.98859 27.2185 9.56162C27.7808 10.1346 28.0967 10.9118 28.0967 11.7222ZM14.3032 16C12.648 16 11.3046 17.3689 11.3046 19.0556V22.1111C11.3046 23.4077 11.8101 24.6512 12.7099 25.5681C13.6096 26.4849 14.8299 27 16.1024 27C17.3748 27 18.5951 26.4849 19.4949 25.5681C20.3946 24.6512 20.9001 23.4077 20.9001 22.1111V19.0556C20.9001 17.3689 19.5567 16 17.9015 16H14.3032ZM8.90577 19.0556C8.90577 18.3491 9.0353 17.6744 9.27519 17.056L6.32218 17.8627C5.55445 18.0724 4.89984 18.5841 4.5022 19.2854C4.10456 19.9867 3.99643 20.8202 4.20158 21.6027L4.66696 23.3749C4.83008 23.9951 5.1115 24.5765 5.49515 25.0859C5.87881 25.5953 6.35718 26.0227 6.90295 26.3437C7.44872 26.6646 8.0512 26.8729 8.67597 26.9566C9.30074 27.0403 9.93557 26.9977 10.5442 26.8313L10.585 26.8191C9.50028 25.4993 8.90584 23.8326 8.90577 22.1111V19.0556ZM23.299 22.1111C23.299 23.9029 22.6681 25.5456 21.6198 26.8216L21.6582 26.8313C22.887 27.1666 24.1962 26.9908 25.2979 26.3426C26.3996 25.6944 27.2035 24.627 27.533 23.3749L27.9984 21.6027C28.2035 20.8202 28.0954 19.9867 27.6978 19.2854C27.3001 18.5841 26.6455 18.0724 25.8778 17.8627L22.932 17.056C23.1694 17.6769 23.299 18.3516 23.299 19.0556V22.1111Z" fill="var(--fill-0, #B0B3BA)"/>
</g>
</svg>
