<svg preserveAspectRatio="none" width="100%" height="100%" overflow="visible" style="display: block;" viewBox="0 0 32 32" fill="none" xmlns="http://www.w3.org/2000/svg">
<g id="material-symbols:home-rounded">
<path id="Vector" d="M5.33333 25.3333V13.3333C5.33333 12.9111 5.428 12.5111 5.61733 12.1333C5.80667 11.7556 6.06756 11.4444 6.4 11.2L14.4 5.2C14.8667 4.84444 15.4 4.66667 16 4.66667C16.6 4.66667 17.1333 4.84444 17.6 5.2L25.6 11.2C25.9333 11.4444 26.1947 11.7556 26.384 12.1333C26.5733 12.5111 26.6676 12.9111 26.6667 13.3333V25.3333C26.6667 26.0667 26.4053 26.6947 25.8827 27.2173C25.36 27.74 24.7324 28.0009 24 28H20C19.6222 28 19.3058 27.872 19.0507 27.616C18.7956 27.36 18.6676 27.0436 18.6667 26.6667V20C18.6667 19.6222 18.5387 19.3058 18.2827 19.0507C18.0267 18.7956 17.7102 18.6676 17.3333 18.6667H14.6667C14.2889 18.6667 13.9724 18.7947 13.7173 19.0507C13.4622 19.3067 13.3342 19.6231 13.3333 20V26.6667C13.3333 27.0444 13.2053 27.3613 12.9493 27.6173C12.6933 27.8733 12.3769 28.0009 12 28H8C7.26667 28 6.63911 27.7391 6.11733 27.2173C5.59556 26.6956 5.33422 26.0676 5.33333 25.3333Z" fill="var(--fill-0, black)"/>
</g>
</svg>
