<svg preserveAspectRatio="none" width="100%" height="100%" overflow="visible" style="display: block;" viewBox="0 0 12 14.5427" fill="none" xmlns="http://www.w3.org/2000/svg">
<g id="Group">
<g id="Vector">
</g>
<path id="Vector_2" d="M6 0C7.5913 0 9.11742 0.632141 10.2426 1.75736C11.3679 2.88258 12 4.4087 12 6C12 8.04933 10.8827 9.72667 9.70533 10.93C9.11711 11.5247 8.47528 12.0639 7.788 12.5407L7.504 12.734L7.37067 12.8227L7.11933 12.9827L6.89533 13.1193L6.618 13.2807C6.42976 13.3881 6.21675 13.4446 6 13.4446C5.78325 13.4446 5.57024 13.3881 5.382 13.2807L5.10467 13.1193L4.758 12.906L4.63 12.8227L4.35667 12.6407C3.61522 12.139 2.9246 11.5661 2.29467 10.93C1.11733 9.726 0 8.04933 0 6C0 4.4087 0.632141 2.88258 1.75736 1.75736C2.88258 0.632141 4.4087 0 6 0ZM6 4C5.73736 4 5.47728 4.05173 5.23463 4.15224C4.99198 4.25275 4.7715 4.40007 4.58579 4.58579C4.40007 4.7715 4.25275 4.99198 4.15224 5.23463C4.05173 5.47728 4 5.73736 4 6C4 6.26264 4.05173 6.52272 4.15224 6.76537C4.25275 7.00802 4.40007 7.2285 4.58579 7.41421C4.7715 7.59993 4.99198 7.74725 5.23463 7.84776C5.47728 7.94827 5.73736 8 6 8C6.53043 8 7.03914 7.78929 7.41421 7.41421C7.78929 7.03914 8 6.53043 8 6C8 5.46957 7.78929 4.96086 7.41421 4.58579C7.03914 4.21071 6.53043 4 6 4Z" fill="var(--fill-0, #B0B3BA)"/>
</g>
</svg>
