<svg preserveAspectRatio="none" width="100%" height="100%" overflow="visible" style="display: block;" viewBox="0 0 32 32" fill="none" xmlns="http://www.w3.org/2000/svg">
<g id="radix-icons:hamburger-menu">
<path id="Vector" d="M26.3223 22.8C26.5135 22.851 26.6855 22.9873 26.809 23.1857C26.9325 23.3842 27 23.6326 27 23.8889C27 24.1452 26.9325 24.3936 26.809 24.5921C26.6855 24.7905 26.5135 24.9268 26.3223 24.9778L26.153 25H5.84612C5.62172 25 5.4065 24.8829 5.24782 24.6746C5.08914 24.4662 5 24.1836 5 23.8889C5 23.5942 5.08914 23.3116 5.24782 23.1032C5.4065 22.8948 5.62172 22.7778 5.84612 22.7778H26.153L26.3223 22.8ZM26.3223 14.9111C26.5135 14.9621 26.6855 15.0984 26.809 15.2968C26.9325 15.4953 27 15.7437 27 16C27 16.2563 26.9325 16.5047 26.809 16.7032C26.6855 16.9016 26.5135 17.0379 26.3223 17.0889L26.153 17.1111H5.84612C5.62172 17.1111 5.4065 16.994 5.24782 16.7857C5.08914 16.5773 5 16.2947 5 16C5 15.7053 5.08914 15.4227 5.24782 15.2143C5.4065 15.006 5.62172 14.8889 5.84612 14.8889H26.153L26.3223 14.9111ZM26.3223 7.02222C26.5135 7.07323 26.6855 7.2095 26.809 7.40794C26.9325 7.60639 27 7.85481 27 8.11111C27 8.36741 26.9325 8.61583 26.809 8.81428C26.6855 9.01273 26.5135 9.149 26.3223 9.2L26.153 9.22222H5.84612C5.62172 9.22222 5.4065 9.10516 5.24782 8.89679C5.08914 8.68841 5 8.4058 5 8.11111C5 7.81643 5.08914 7.53381 5.24782 7.32544C5.4065 7.11706 5.62172 7 5.84612 7H26.153L26.3223 7.02222Z" fill="var(--fill-0, black)"/>
</g>
</svg>
