<svg preserveAspectRatio="none" width="100%" height="100%" overflow="visible" style="display: block;" viewBox="0 0 32 32" fill="none" xmlns="http://www.w3.org/2000/svg">
<g id="ic:round-plus">
<path id="Vector" d="M24 17.3307H17.3333V23.9973C17.3333 24.351 17.1929 24.6901 16.9428 24.9401C16.6928 25.1902 16.3536 25.3307 16 25.3307C15.6464 25.3307 15.3072 25.1902 15.0572 24.9401C14.8071 24.6901 14.6667 24.351 14.6667 23.9973V17.3307H8C7.64638 17.3307 7.30724 17.1902 7.05719 16.9401C6.80714 16.6901 6.66667 16.351 6.66667 15.9973C6.66667 15.6437 6.80714 15.3046 7.05719 15.0545C7.30724 14.8045 7.64638 14.664 8 14.664H14.6667V7.99733C14.6667 7.64371 14.8071 7.30457 15.0572 7.05452C15.3072 6.80448 15.6464 6.664 16 6.664C16.3536 6.664 16.6928 6.80448 16.9428 7.05452C17.1929 7.30457 17.3333 7.64371 17.3333 7.99733V14.664H24C24.3536 14.664 24.6928 14.8045 24.9428 15.0545C25.1929 15.3046 25.3333 15.6437 25.3333 15.9973C25.3333 16.351 25.1929 16.6901 24.9428 16.9401C24.6928 17.1902 24.3536 17.3307 24 17.3307Z" fill="var(--fill-0, white)"/>
</g>
</svg>
