<svg preserveAspectRatio="none" width="100%" height="100%" overflow="visible" style="display: block;" viewBox="0 0 32 32" fill="none" xmlns="http://www.w3.org/2000/svg">
<g id="mdi:person">
<path id="Vector" d="M15.9668 5C17.3813 5 18.7378 5.56191 19.738 6.5621C20.7382 7.5623 21.3001 8.91885 21.3001 10.3333C21.3001 11.7478 20.7382 13.1044 19.738 14.1046C18.7378 15.1048 17.3813 15.6667 15.9668 15.6667C14.5523 15.6667 13.1958 15.1048 12.1956 14.1046C11.1954 13.1044 10.6335 11.7478 10.6335 10.3333C10.6335 8.91885 11.1954 7.5623 12.1956 6.5621C13.1958 5.56191 14.5523 5 15.9668 5ZM15.9668 18.3333C21.8601 18.3333 26.6335 20.72 26.6335 23.6667C26.6335 25.1394 25.4396 26.3333 23.9668 26.3333H7.9668C6.49404 26.3333 5.30013 25.1394 5.30013 23.6667C5.30013 20.72 10.0735 18.3333 15.9668 18.3333Z" fill="var(--fill-0, #B0B3BA)"/>
</g>
</svg>
