<svg preserveAspectRatio="none" width="100%" height="100%" overflow="visible" style="display: block;" viewBox="0 0 32 32" fill="none" xmlns="http://www.w3.org/2000/svg">
<g id="icon">
<path id="Union" d="M15 5C20.5228 5 25 9.47715 25 15C25 17.2514 24.2555 19.3286 23 21L27.293 25.293C27.6834 25.6835 27.6834 26.3165 27.293 26.707C26.9025 27.0975 26.2694 27.0975 25.8789 26.707L21.6436 22.4717C19.877 24.0436 17.5507 25 15 25C9.47715 25 5 20.5228 5 15C5 9.47715 9.47715 5 15 5ZM15 7C10.5817 7 7 10.5817 7 15C7 19.4183 10.5817 23 15 23C19.4183 23 23 19.4183 23 15C23 10.5817 19.4183 7 15 7Z" fill="var(--fill-0, #111111)"/>
</g>
</svg>
