<svg preserveAspectRatio="none" width="100%" height="100%" overflow="visible" style="display: block;" viewBox="0 0 32 32" fill="none" xmlns="http://www.w3.org/2000/svg">
<g id="icon/chat">
<path id="Vector" d="M27.8999 14.2515C27.8999 20.4656 22.0792 25.5031 14.8999 25.5031C13.6123 25.5059 12.3299 25.3405 11.086 25.0112C10.137 25.487 7.9579 26.4 4.2919 26.9947C3.9669 27.0462 3.7199 26.7118 3.84828 26.4129C4.42353 25.0691 4.94353 23.2785 5.09953 21.6454C3.1089 19.6684 1.8999 17.0805 1.8999 14.2515C1.8999 8.03748 7.72065 3 14.8999 3C22.0792 3 27.8999 8.03748 27.8999 14.2515ZM10.0249 14.2515C10.0249 13.8252 9.8537 13.4164 9.54895 13.115C9.2442 12.8135 8.83088 12.6442 8.3999 12.6442C7.96893 12.6442 7.5556 12.8135 7.25085 13.115C6.94611 13.4164 6.7749 13.8252 6.7749 14.2515C6.7749 14.6778 6.94611 15.0867 7.25085 15.3881C7.5556 15.6896 7.96893 15.8589 8.3999 15.8589C8.83088 15.8589 9.2442 15.6896 9.54895 15.3881C9.8537 15.0867 10.0249 14.6778 10.0249 14.2515ZM16.5249 14.2515C16.5249 13.8252 16.3537 13.4164 16.049 13.115C15.7442 12.8135 15.3309 12.6442 14.8999 12.6442C14.4689 12.6442 14.0556 12.8135 13.7509 13.115C13.4461 13.4164 13.2749 13.8252 13.2749 14.2515C13.2749 14.6778 13.4461 15.0867 13.7509 15.3881C14.0556 15.6896 14.4689 15.8589 14.8999 15.8589C15.3309 15.8589 15.7442 15.6896 16.049 15.3881C16.3537 15.0867 16.5249 14.6778 16.5249 14.2515ZM21.3999 15.8589C21.8309 15.8589 22.2442 15.6896 22.549 15.3881C22.8537 15.0867 23.0249 14.6778 23.0249 14.2515C23.0249 13.8252 22.8537 13.4164 22.549 13.115C22.2442 12.8135 21.8309 12.6442 21.3999 12.6442C20.9689 12.6442 20.5556 12.8135 20.2509 13.115C19.9461 13.4164 19.7749 13.8252 19.7749 14.2515C19.7749 14.6778 19.9461 15.0867 20.2509 15.3881C20.5556 15.6896 20.9689 15.8589 21.3999 15.8589Z" fill="var(--fill-0, #B0B3BA)"/>
</g>
</svg>
