<svg preserveAspectRatio="none" width="100%" height="100%" overflow="visible" style="display: block;" viewBox="0 0 32 32" fill="none" xmlns="http://www.w3.org/2000/svg">
<g id="mingcute:location-fill">
<path id="Vector" d="M16.5 3C19.4174 3 22.2153 4.15893 24.2782 6.22183C26.3411 8.28473 27.5 11.0826 27.5 14C27.5 17.7571 25.4516 20.8322 23.2931 23.0383C22.2147 24.1286 21.038 25.1171 19.778 25.9912L19.2573 26.3457L19.0129 26.5082L18.5521 26.8016L18.1414 27.0521L17.633 27.3479C17.2879 27.5449 16.8974 27.6485 16.5 27.6485C16.1026 27.6485 15.7121 27.5449 15.367 27.3479L14.8586 27.0521L14.223 26.661L13.9883 26.5082L13.4872 26.1746C12.1279 25.2549 10.8618 24.2045 9.70689 23.0383C7.54844 20.831 5.5 17.7571 5.5 14C5.5 11.0826 6.65893 8.28473 8.72183 6.22183C10.7847 4.15893 13.5826 3 16.5 3ZM16.5 10.3333C16.0185 10.3333 15.5417 10.4282 15.0968 10.6124C14.652 10.7967 14.2478 11.0668 13.9073 11.4073C13.5668 11.7478 13.2967 12.152 13.1124 12.5968C12.9282 13.0417 12.8333 13.5185 12.8333 14C12.8333 14.4815 12.9282 14.9583 13.1124 15.4032C13.2967 15.848 13.5668 16.2522 13.9073 16.5927C14.2478 16.9332 14.652 17.2033 15.0968 17.3876C15.5417 17.5718 16.0185 17.6667 16.5 17.6667C17.4725 17.6667 18.4051 17.2804 19.0927 16.5927C19.7804 15.9051 20.1667 14.9725 20.1667 14C20.1667 13.0275 19.7804 12.0949 19.0927 11.4073C18.4051 10.7196 17.4725 10.3333 16.5 10.3333Z" fill="var(--fill-0, black)"/>
</g>
</svg>
