<svg preserveAspectRatio="none" width="100%" height="100%" overflow="visible" style="display: block;" viewBox="0 0 20 20" fill="none" xmlns="http://www.w3.org/2000/svg">
<g id="Icon">
<path id="Vector" d="M7 9.5C8.38071 9.5 9.5 8.38071 9.5 7C9.5 5.61929 8.38071 4.5 7 4.5C5.61929 4.5 4.5 5.61929 4.5 7C4.5 8.38071 5.61929 9.5 7 9.5Z" fill="var(--fill-0, #FF6B6B)"/>
<path id="Vector_2" opacity="0.7" d="M13 9.5C14.3807 9.5 15.5 8.38071 15.5 7C15.5 5.61929 14.3807 4.5 13 4.5C11.6193 4.5 10.5 5.61929 10.5 7C10.5 8.38071 11.6193 9.5 13 9.5Z" fill="var(--fill-0, #FF6B6B)"/>
<path id="Vector_3" d="M3 16C3 13.5 5 12 7 12C8 12 9 12.3 9.5 13" stroke="var(--stroke-0, #FF6B6B)" stroke-width="1.5" stroke-linecap="round"/>
<path id="Vector_4" opacity="0.7" d="M17 16C17 13.5 15 12 13 12C12 12 11 12.3 10.5 13" stroke="var(--stroke-0, #FF6B6B)" stroke-width="1.5" stroke-linecap="round"/>
</g>
</svg>
